<mxfile host="app.diagrams.net" modified="2023-10-15T19:43:25.957Z" agent="Mozilla/5.0 (X11; Ubuntu; Linux x86_64; rv:109.0) Gecko/20100101 Firefox/118.0" etag="MTt3xZkAXddVJFDXgl6j" version="22.0.4" type="device">
  <diagram name="Page-1" id="Hy-IpIXkiTlqkxj16Ndg">
    <mxGraphModel dx="3387" dy="861" grid="1" gridSize="10" guides="1" tooltips="1" connect="1" arrows="1" fold="1" page="1" pageScale="1" pageWidth="850" pageHeight="1100" math="0" shadow="0">
      <root>
        <mxCell id="0" />
        <mxCell id="1" parent="0" />
        <mxCell id="j8NAKuWzRgl3xFltfP5k-9" value="canvas event" style="ellipse;whiteSpace=wrap;html=1;" vertex="1" parent="1">
          <mxGeometry x="-860" y="70" width="120" height="80" as="geometry" />
        </mxCell>
        <mxCell id="j8NAKuWzRgl3xFltfP5k-10" value="&lt;div&gt;Sycamore ui&lt;/div&gt;" style="shape=parallelogram;perimeter=parallelogramPerimeter;whiteSpace=wrap;html=1;fixedSize=1;" vertex="1" parent="1">
          <mxGeometry x="-660" y="80" width="120" height="60" as="geometry" />
        </mxCell>
        <mxCell id="j8NAKuWzRgl3xFltfP5k-11" value="Game struct" style="rounded=0;whiteSpace=wrap;html=1;" vertex="1" parent="1">
          <mxGeometry x="-1060" y="80" width="120" height="60" as="geometry" />
        </mxCell>
        <mxCell id="j8NAKuWzRgl3xFltfP5k-16" style="edgeStyle=orthogonalEdgeStyle;rounded=0;orthogonalLoop=1;jettySize=auto;html=1;" edge="1" parent="1" source="j8NAKuWzRgl3xFltfP5k-12" target="j8NAKuWzRgl3xFltfP5k-13">
          <mxGeometry relative="1" as="geometry" />
        </mxCell>
        <mxCell id="j8NAKuWzRgl3xFltfP5k-12" value="start" style="rounded=0;whiteSpace=wrap;html=1;" vertex="1" parent="1">
          <mxGeometry x="-1060" y="390" width="120" height="60" as="geometry" />
        </mxCell>
        <mxCell id="j8NAKuWzRgl3xFltfP5k-17" value="" style="edgeStyle=orthogonalEdgeStyle;rounded=0;orthogonalLoop=1;jettySize=auto;html=1;" edge="1" parent="1" source="j8NAKuWzRgl3xFltfP5k-13" target="j8NAKuWzRgl3xFltfP5k-14">
          <mxGeometry relative="1" as="geometry" />
        </mxCell>
        <mxCell id="j8NAKuWzRgl3xFltfP5k-13" value="Setup ui" style="shape=parallelogram;perimeter=parallelogramPerimeter;whiteSpace=wrap;html=1;fixedSize=1;" vertex="1" parent="1">
          <mxGeometry x="-870" y="390" width="120" height="60" as="geometry" />
        </mxCell>
        <mxCell id="j8NAKuWzRgl3xFltfP5k-18" style="edgeStyle=orthogonalEdgeStyle;rounded=0;orthogonalLoop=1;jettySize=auto;html=1;entryX=0;entryY=0.5;entryDx=0;entryDy=0;" edge="1" parent="1" source="j8NAKuWzRgl3xFltfP5k-14" target="j8NAKuWzRgl3xFltfP5k-15">
          <mxGeometry relative="1" as="geometry" />
        </mxCell>
        <mxCell id="j8NAKuWzRgl3xFltfP5k-14" value="&lt;div&gt;load&lt;/div&gt;&lt;div&gt;player config&lt;br&gt;&lt;/div&gt;" style="rounded=0;whiteSpace=wrap;html=1;" vertex="1" parent="1">
          <mxGeometry x="-680" y="390" width="120" height="60" as="geometry" />
        </mxCell>
        <mxCell id="j8NAKuWzRgl3xFltfP5k-22" style="edgeStyle=orthogonalEdgeStyle;rounded=0;orthogonalLoop=1;jettySize=auto;html=1;" edge="1" parent="1" source="j8NAKuWzRgl3xFltfP5k-15" target="j8NAKuWzRgl3xFltfP5k-19">
          <mxGeometry relative="1" as="geometry" />
        </mxCell>
        <mxCell id="j8NAKuWzRgl3xFltfP5k-15" value="Init canvas" style="ellipse;whiteSpace=wrap;html=1;" vertex="1" parent="1">
          <mxGeometry x="-490" y="380" width="120" height="80" as="geometry" />
        </mxCell>
        <mxCell id="j8NAKuWzRgl3xFltfP5k-26" style="edgeStyle=orthogonalEdgeStyle;rounded=0;orthogonalLoop=1;jettySize=auto;html=1;exitX=0.75;exitY=0;exitDx=0;exitDy=0;" edge="1" parent="1" source="j8NAKuWzRgl3xFltfP5k-19" target="j8NAKuWzRgl3xFltfP5k-20">
          <mxGeometry relative="1" as="geometry" />
        </mxCell>
        <mxCell id="j8NAKuWzRgl3xFltfP5k-32" style="edgeStyle=orthogonalEdgeStyle;rounded=0;orthogonalLoop=1;jettySize=auto;html=1;entryX=0;entryY=0.5;entryDx=0;entryDy=0;" edge="1" parent="1" source="j8NAKuWzRgl3xFltfP5k-19" target="j8NAKuWzRgl3xFltfP5k-30">
          <mxGeometry relative="1" as="geometry" />
        </mxCell>
        <mxCell id="j8NAKuWzRgl3xFltfP5k-19" value="&lt;div&gt;place starting&amp;nbsp;&lt;/div&gt;&lt;div&gt;armies&lt;/div&gt;" style="rounded=0;whiteSpace=wrap;html=1;" vertex="1" parent="1">
          <mxGeometry x="-300" y="390" width="120" height="60" as="geometry" />
        </mxCell>
        <mxCell id="j8NAKuWzRgl3xFltfP5k-20" value="display change" style="shape=parallelogram;perimeter=parallelogramPerimeter;whiteSpace=wrap;html=1;fixedSize=1;" vertex="1" parent="1">
          <mxGeometry x="-200" y="240" width="120" height="60" as="geometry" />
        </mxCell>
        <mxCell id="j8NAKuWzRgl3xFltfP5k-23" style="edgeStyle=orthogonalEdgeStyle;rounded=0;orthogonalLoop=1;jettySize=auto;html=1;entryX=0.25;entryY=0;entryDx=0;entryDy=0;" edge="1" parent="1" source="j8NAKuWzRgl3xFltfP5k-21" target="j8NAKuWzRgl3xFltfP5k-19">
          <mxGeometry relative="1" as="geometry" />
        </mxCell>
        <mxCell id="j8NAKuWzRgl3xFltfP5k-21" value="click on province" style="ellipse;whiteSpace=wrap;html=1;" vertex="1" parent="1">
          <mxGeometry x="-390" y="230" width="120" height="80" as="geometry" />
        </mxCell>
        <mxCell id="j8NAKuWzRgl3xFltfP5k-63" style="edgeStyle=orthogonalEdgeStyle;rounded=0;orthogonalLoop=1;jettySize=auto;html=1;exitX=1;exitY=0.5;exitDx=0;exitDy=0;entryX=0;entryY=0.5;entryDx=0;entryDy=0;" edge="1" parent="1" source="j8NAKuWzRgl3xFltfP5k-27" target="j8NAKuWzRgl3xFltfP5k-58">
          <mxGeometry relative="1" as="geometry" />
        </mxCell>
        <mxCell id="j8NAKuWzRgl3xFltfP5k-27" value="attack province" style="ellipse;whiteSpace=wrap;html=1;" vertex="1" parent="1">
          <mxGeometry x="480" y="280" width="120" height="80" as="geometry" />
        </mxCell>
        <mxCell id="j8NAKuWzRgl3xFltfP5k-51" style="edgeStyle=orthogonalEdgeStyle;rounded=0;orthogonalLoop=1;jettySize=auto;html=1;entryX=0.75;entryY=0;entryDx=0;entryDy=0;" edge="1" parent="1" source="j8NAKuWzRgl3xFltfP5k-28" target="j8NAKuWzRgl3xFltfP5k-34">
          <mxGeometry relative="1" as="geometry">
            <Array as="points">
              <mxPoint x="540" y="540" />
              <mxPoint x="170" y="540" />
            </Array>
          </mxGeometry>
        </mxCell>
        <mxCell id="j8NAKuWzRgl3xFltfP5k-55" style="edgeStyle=orthogonalEdgeStyle;rounded=0;orthogonalLoop=1;jettySize=auto;html=1;entryX=0.5;entryY=0;entryDx=0;entryDy=0;" edge="1" parent="1" source="j8NAKuWzRgl3xFltfP5k-28" target="j8NAKuWzRgl3xFltfP5k-30">
          <mxGeometry relative="1" as="geometry">
            <Array as="points">
              <mxPoint x="660" y="460" />
              <mxPoint x="660" y="250" />
              <mxPoint x="-50" y="250" />
            </Array>
          </mxGeometry>
        </mxCell>
        <mxCell id="j8NAKuWzRgl3xFltfP5k-28" value="reinforce" style="shape=parallelogram;perimeter=parallelogramPerimeter;whiteSpace=wrap;html=1;fixedSize=1;" vertex="1" parent="1">
          <mxGeometry x="480" y="430" width="120" height="60" as="geometry" />
        </mxCell>
        <mxCell id="j8NAKuWzRgl3xFltfP5k-50" style="edgeStyle=orthogonalEdgeStyle;rounded=0;orthogonalLoop=1;jettySize=auto;html=1;entryX=1;entryY=0.5;entryDx=0;entryDy=0;startArrow=classic;startFill=1;" edge="1" parent="1" source="j8NAKuWzRgl3xFltfP5k-29" target="j8NAKuWzRgl3xFltfP5k-34">
          <mxGeometry relative="1" as="geometry" />
        </mxCell>
        <mxCell id="j8NAKuWzRgl3xFltfP5k-29" value="use cards" style="rounded=0;whiteSpace=wrap;html=1;" vertex="1" parent="1">
          <mxGeometry x="320" y="570" width="120" height="60" as="geometry" />
        </mxCell>
        <mxCell id="j8NAKuWzRgl3xFltfP5k-48" style="edgeStyle=orthogonalEdgeStyle;rounded=0;orthogonalLoop=1;jettySize=auto;html=1;entryX=0;entryY=0.5;entryDx=0;entryDy=0;" edge="1" parent="1" source="j8NAKuWzRgl3xFltfP5k-30" target="j8NAKuWzRgl3xFltfP5k-44">
          <mxGeometry relative="1" as="geometry" />
        </mxCell>
        <mxCell id="j8NAKuWzRgl3xFltfP5k-30" value="player turn" style="rounded=0;whiteSpace=wrap;html=1;" vertex="1" parent="1">
          <mxGeometry x="-110" y="390" width="120" height="60" as="geometry" />
        </mxCell>
        <mxCell id="j8NAKuWzRgl3xFltfP5k-31" value="game end " style="rounded=0;whiteSpace=wrap;html=1;" vertex="1" parent="1">
          <mxGeometry x="2020" y="390" width="120" height="60" as="geometry" />
        </mxCell>
        <mxCell id="j8NAKuWzRgl3xFltfP5k-33" style="edgeStyle=orthogonalEdgeStyle;rounded=0;orthogonalLoop=1;jettySize=auto;html=1;exitX=0.623;exitY=1.003;exitDx=0;exitDy=0;exitPerimeter=0;" edge="1" parent="1" source="j8NAKuWzRgl3xFltfP5k-34" target="j8NAKuWzRgl3xFltfP5k-35">
          <mxGeometry relative="1" as="geometry" />
        </mxCell>
        <mxCell id="j8NAKuWzRgl3xFltfP5k-34" value="place armies" style="rounded=0;whiteSpace=wrap;html=1;" vertex="1" parent="1">
          <mxGeometry x="80" y="570" width="120" height="60" as="geometry" />
        </mxCell>
        <mxCell id="j8NAKuWzRgl3xFltfP5k-35" value="display change" style="shape=parallelogram;perimeter=parallelogramPerimeter;whiteSpace=wrap;html=1;fixedSize=1;" vertex="1" parent="1">
          <mxGeometry x="140" y="700" width="120" height="60" as="geometry" />
        </mxCell>
        <mxCell id="j8NAKuWzRgl3xFltfP5k-40" style="edgeStyle=orthogonalEdgeStyle;rounded=0;orthogonalLoop=1;jettySize=auto;html=1;entryX=0.25;entryY=1;entryDx=0;entryDy=0;" edge="1" parent="1" source="j8NAKuWzRgl3xFltfP5k-37" target="j8NAKuWzRgl3xFltfP5k-34">
          <mxGeometry relative="1" as="geometry">
            <Array as="points">
              <mxPoint x="20" y="670" />
              <mxPoint x="110" y="670" />
            </Array>
          </mxGeometry>
        </mxCell>
        <mxCell id="j8NAKuWzRgl3xFltfP5k-37" value="click on province" style="ellipse;whiteSpace=wrap;html=1;" vertex="1" parent="1">
          <mxGeometry x="-40" y="690" width="120" height="80" as="geometry" />
        </mxCell>
        <mxCell id="j8NAKuWzRgl3xFltfP5k-49" style="edgeStyle=orthogonalEdgeStyle;rounded=0;orthogonalLoop=1;jettySize=auto;html=1;exitX=0.5;exitY=1;exitDx=0;exitDy=0;entryX=0.25;entryY=0;entryDx=0;entryDy=0;startArrow=classic;startFill=1;" edge="1" parent="1" source="j8NAKuWzRgl3xFltfP5k-44" target="j8NAKuWzRgl3xFltfP5k-34">
          <mxGeometry relative="1" as="geometry" />
        </mxCell>
        <mxCell id="j8NAKuWzRgl3xFltfP5k-60" style="edgeStyle=orthogonalEdgeStyle;rounded=0;orthogonalLoop=1;jettySize=auto;html=1;" edge="1" parent="1" source="j8NAKuWzRgl3xFltfP5k-44" target="j8NAKuWzRgl3xFltfP5k-59">
          <mxGeometry relative="1" as="geometry" />
        </mxCell>
        <mxCell id="j8NAKuWzRgl3xFltfP5k-44" value="place reinforcing armies" style="rounded=0;whiteSpace=wrap;html=1;" vertex="1" parent="1">
          <mxGeometry x="90" y="390" width="120" height="60" as="geometry" />
        </mxCell>
        <mxCell id="j8NAKuWzRgl3xFltfP5k-78" style="edgeStyle=orthogonalEdgeStyle;rounded=0;orthogonalLoop=1;jettySize=auto;html=1;" edge="1" parent="1">
          <mxGeometry relative="1" as="geometry">
            <mxPoint x="590.0003921568623" y="40.05882352941194" as="sourcePoint" />
            <mxPoint x="790.0788235294117" y="290" as="targetPoint" />
            <Array as="points">
              <mxPoint x="790.02" y="40" />
            </Array>
          </mxGeometry>
        </mxCell>
        <mxCell id="j8NAKuWzRgl3xFltfP5k-56" value="update display" style="shape=parallelogram;perimeter=parallelogramPerimeter;whiteSpace=wrap;html=1;fixedSize=1;" vertex="1" parent="1">
          <mxGeometry x="510" y="10" width="120" height="60" as="geometry" />
        </mxCell>
        <mxCell id="j8NAKuWzRgl3xFltfP5k-57" value="move armies" style="ellipse;whiteSpace=wrap;html=1;" vertex="1" parent="1">
          <mxGeometry x="1260" y="220" width="120" height="80" as="geometry" />
        </mxCell>
        <mxCell id="j8NAKuWzRgl3xFltfP5k-73" style="edgeStyle=orthogonalEdgeStyle;rounded=0;orthogonalLoop=1;jettySize=auto;html=1;exitX=0.25;exitY=0;exitDx=0;exitDy=0;" edge="1" parent="1" source="j8NAKuWzRgl3xFltfP5k-58" target="j8NAKuWzRgl3xFltfP5k-65">
          <mxGeometry relative="1" as="geometry" />
        </mxCell>
        <mxCell id="j8NAKuWzRgl3xFltfP5k-79" style="edgeStyle=orthogonalEdgeStyle;rounded=0;orthogonalLoop=1;jettySize=auto;html=1;exitX=0.75;exitY=0;exitDx=0;exitDy=0;" edge="1" parent="1" source="j8NAKuWzRgl3xFltfP5k-58" target="j8NAKuWzRgl3xFltfP5k-66">
          <mxGeometry relative="1" as="geometry" />
        </mxCell>
        <mxCell id="j8NAKuWzRgl3xFltfP5k-81" style="edgeStyle=orthogonalEdgeStyle;rounded=0;orthogonalLoop=1;jettySize=auto;html=1;exitX=1;exitY=0;exitDx=0;exitDy=0;" edge="1" parent="1" source="j8NAKuWzRgl3xFltfP5k-58" target="j8NAKuWzRgl3xFltfP5k-80">
          <mxGeometry relative="1" as="geometry">
            <Array as="points">
              <mxPoint x="840" y="260" />
              <mxPoint x="1000" y="260" />
            </Array>
          </mxGeometry>
        </mxCell>
        <mxCell id="j8NAKuWzRgl3xFltfP5k-83" style="edgeStyle=orthogonalEdgeStyle;rounded=0;orthogonalLoop=1;jettySize=auto;html=1;" edge="1" parent="1" source="j8NAKuWzRgl3xFltfP5k-58" target="j8NAKuWzRgl3xFltfP5k-69">
          <mxGeometry relative="1" as="geometry" />
        </mxCell>
        <mxCell id="j8NAKuWzRgl3xFltfP5k-58" value="province attack" style="rounded=0;whiteSpace=wrap;html=1;" vertex="1" parent="1">
          <mxGeometry x="720" y="290" width="120" height="60" as="geometry" />
        </mxCell>
        <mxCell id="j8NAKuWzRgl3xFltfP5k-61" style="edgeStyle=orthogonalEdgeStyle;rounded=0;orthogonalLoop=1;jettySize=auto;html=1;exitX=1;exitY=0.75;exitDx=0;exitDy=0;entryX=0;entryY=0.5;entryDx=0;entryDy=0;" edge="1" parent="1" source="j8NAKuWzRgl3xFltfP5k-59" target="j8NAKuWzRgl3xFltfP5k-28">
          <mxGeometry relative="1" as="geometry" />
        </mxCell>
        <mxCell id="j8NAKuWzRgl3xFltfP5k-97" style="edgeStyle=orthogonalEdgeStyle;rounded=0;orthogonalLoop=1;jettySize=auto;html=1;" edge="1" parent="1" source="j8NAKuWzRgl3xFltfP5k-59" target="j8NAKuWzRgl3xFltfP5k-68">
          <mxGeometry relative="1" as="geometry">
            <Array as="points">
              <mxPoint x="360" y="530" />
              <mxPoint x="1480" y="530" />
            </Array>
          </mxGeometry>
        </mxCell>
        <mxCell id="j8NAKuWzRgl3xFltfP5k-59" value="player turn main" style="rounded=0;whiteSpace=wrap;html=1;" vertex="1" parent="1">
          <mxGeometry x="305" y="390" width="120" height="60" as="geometry" />
        </mxCell>
        <mxCell id="j8NAKuWzRgl3xFltfP5k-62" style="edgeStyle=orthogonalEdgeStyle;rounded=0;orthogonalLoop=1;jettySize=auto;html=1;exitX=1;exitY=0.25;exitDx=0;exitDy=0;entryX=-0.029;entryY=0.414;entryDx=0;entryDy=0;entryPerimeter=0;" edge="1" parent="1" source="j8NAKuWzRgl3xFltfP5k-59" target="j8NAKuWzRgl3xFltfP5k-27">
          <mxGeometry relative="1" as="geometry">
            <Array as="points">
              <mxPoint x="450" y="405" />
              <mxPoint x="450" y="313" />
            </Array>
          </mxGeometry>
        </mxCell>
        <mxCell id="j8NAKuWzRgl3xFltfP5k-76" style="edgeStyle=orthogonalEdgeStyle;rounded=0;orthogonalLoop=1;jettySize=auto;html=1;exitX=0;exitY=0.75;exitDx=0;exitDy=0;entryX=1;entryY=0.5;entryDx=0;entryDy=0;" edge="1" parent="1" source="j8NAKuWzRgl3xFltfP5k-65" target="j8NAKuWzRgl3xFltfP5k-75">
          <mxGeometry relative="1" as="geometry" />
        </mxCell>
        <mxCell id="j8NAKuWzRgl3xFltfP5k-65" value="roll dice" style="shape=parallelogram;perimeter=parallelogramPerimeter;whiteSpace=wrap;html=1;fixedSize=1;" vertex="1" parent="1">
          <mxGeometry x="660" y="120" width="120" height="60" as="geometry" />
        </mxCell>
        <mxCell id="j8NAKuWzRgl3xFltfP5k-66" value="select num dice" style="shape=parallelogram;perimeter=parallelogramPerimeter;whiteSpace=wrap;html=1;fixedSize=1;" vertex="1" parent="1">
          <mxGeometry x="800" y="120" width="120" height="60" as="geometry" />
        </mxCell>
        <mxCell id="j8NAKuWzRgl3xFltfP5k-71" style="edgeStyle=orthogonalEdgeStyle;rounded=0;orthogonalLoop=1;jettySize=auto;html=1;" edge="1" parent="1" source="j8NAKuWzRgl3xFltfP5k-67" target="j8NAKuWzRgl3xFltfP5k-31">
          <mxGeometry relative="1" as="geometry" />
        </mxCell>
        <mxCell id="j8NAKuWzRgl3xFltfP5k-67" value="victory check" style="rounded=0;whiteSpace=wrap;html=1;" vertex="1" parent="1">
          <mxGeometry x="1810" y="390" width="120" height="60" as="geometry" />
        </mxCell>
        <mxCell id="j8NAKuWzRgl3xFltfP5k-99" style="edgeStyle=orthogonalEdgeStyle;rounded=0;orthogonalLoop=1;jettySize=auto;html=1;" edge="1" parent="1" source="j8NAKuWzRgl3xFltfP5k-68" target="j8NAKuWzRgl3xFltfP5k-98">
          <mxGeometry relative="1" as="geometry" />
        </mxCell>
        <mxCell id="j8NAKuWzRgl3xFltfP5k-68" value="turn end" style="rounded=0;whiteSpace=wrap;html=1;" vertex="1" parent="1">
          <mxGeometry x="1420" y="390" width="120" height="60" as="geometry" />
        </mxCell>
        <mxCell id="j8NAKuWzRgl3xFltfP5k-84" style="edgeStyle=orthogonalEdgeStyle;rounded=0;orthogonalLoop=1;jettySize=auto;html=1;entryX=1;entryY=0.5;entryDx=0;entryDy=0;" edge="1" parent="1" source="j8NAKuWzRgl3xFltfP5k-69" target="j8NAKuWzRgl3xFltfP5k-59">
          <mxGeometry relative="1" as="geometry">
            <Array as="points">
              <mxPoint x="1080" y="420" />
            </Array>
          </mxGeometry>
        </mxCell>
        <mxCell id="j8NAKuWzRgl3xFltfP5k-85" value="defeat" style="edgeLabel;html=1;align=center;verticalAlign=middle;resizable=0;points=[];" vertex="1" connectable="0" parent="j8NAKuWzRgl3xFltfP5k-84">
          <mxGeometry x="-0.9233" y="1" relative="1" as="geometry">
            <mxPoint as="offset" />
          </mxGeometry>
        </mxCell>
        <mxCell id="j8NAKuWzRgl3xFltfP5k-93" style="edgeStyle=orthogonalEdgeStyle;rounded=0;orthogonalLoop=1;jettySize=auto;html=1;entryX=0;entryY=0.5;entryDx=0;entryDy=0;" edge="1" parent="1" source="j8NAKuWzRgl3xFltfP5k-69" target="j8NAKuWzRgl3xFltfP5k-57">
          <mxGeometry relative="1" as="geometry">
            <Array as="points">
              <mxPoint x="1240" y="320" />
              <mxPoint x="1240" y="260" />
            </Array>
          </mxGeometry>
        </mxCell>
        <mxCell id="j8NAKuWzRgl3xFltfP5k-94" style="edgeStyle=orthogonalEdgeStyle;rounded=0;orthogonalLoop=1;jettySize=auto;html=1;entryX=0;entryY=0.5;entryDx=0;entryDy=0;" edge="1" parent="1" source="j8NAKuWzRgl3xFltfP5k-69" target="j8NAKuWzRgl3xFltfP5k-87">
          <mxGeometry relative="1" as="geometry">
            <Array as="points">
              <mxPoint x="1240" y="320" />
              <mxPoint x="1240" y="370" />
            </Array>
          </mxGeometry>
        </mxCell>
        <mxCell id="j8NAKuWzRgl3xFltfP5k-95" value="victory" style="edgeLabel;html=1;align=center;verticalAlign=middle;resizable=0;points=[];" vertex="1" connectable="0" parent="j8NAKuWzRgl3xFltfP5k-94">
          <mxGeometry x="-0.6203" y="-1" relative="1" as="geometry">
            <mxPoint x="6" y="-11" as="offset" />
          </mxGeometry>
        </mxCell>
        <mxCell id="j8NAKuWzRgl3xFltfP5k-96" style="edgeStyle=orthogonalEdgeStyle;rounded=0;orthogonalLoop=1;jettySize=auto;html=1;entryX=1;entryY=0.5;entryDx=0;entryDy=0;" edge="1" parent="1" source="j8NAKuWzRgl3xFltfP5k-69" target="j8NAKuWzRgl3xFltfP5k-59">
          <mxGeometry relative="1" as="geometry">
            <Array as="points">
              <mxPoint x="1400" y="320" />
              <mxPoint x="1400" y="420" />
            </Array>
          </mxGeometry>
        </mxCell>
        <mxCell id="j8NAKuWzRgl3xFltfP5k-69" value="victory or defeat" style="rounded=0;whiteSpace=wrap;html=1;" vertex="1" parent="1">
          <mxGeometry x="1020" y="290" width="120" height="60" as="geometry" />
        </mxCell>
        <mxCell id="j8NAKuWzRgl3xFltfP5k-72" style="edgeStyle=orthogonalEdgeStyle;rounded=0;orthogonalLoop=1;jettySize=auto;html=1;entryX=0.437;entryY=1.032;entryDx=0;entryDy=0;entryPerimeter=0;" edge="1" parent="1" source="j8NAKuWzRgl3xFltfP5k-67" target="j8NAKuWzRgl3xFltfP5k-30">
          <mxGeometry relative="1" as="geometry">
            <Array as="points">
              <mxPoint x="1870" y="500" />
              <mxPoint x="-58" y="500" />
            </Array>
          </mxGeometry>
        </mxCell>
        <mxCell id="j8NAKuWzRgl3xFltfP5k-77" style="edgeStyle=orthogonalEdgeStyle;rounded=0;orthogonalLoop=1;jettySize=auto;html=1;" edge="1" parent="1" source="j8NAKuWzRgl3xFltfP5k-75" target="j8NAKuWzRgl3xFltfP5k-56">
          <mxGeometry relative="1" as="geometry" />
        </mxCell>
        <mxCell id="j8NAKuWzRgl3xFltfP5k-75" value="update army count" style="rounded=0;whiteSpace=wrap;html=1;" vertex="1" parent="1">
          <mxGeometry x="500" y="120" width="120" height="60" as="geometry" />
        </mxCell>
        <mxCell id="j8NAKuWzRgl3xFltfP5k-82" style="edgeStyle=orthogonalEdgeStyle;rounded=0;orthogonalLoop=1;jettySize=auto;html=1;entryX=0.25;entryY=0;entryDx=0;entryDy=0;" edge="1" parent="1" source="j8NAKuWzRgl3xFltfP5k-80" target="j8NAKuWzRgl3xFltfP5k-69">
          <mxGeometry relative="1" as="geometry">
            <Array as="points">
              <mxPoint x="1050" y="235" />
            </Array>
          </mxGeometry>
        </mxCell>
        <mxCell id="j8NAKuWzRgl3xFltfP5k-80" value="retreat" style="shape=parallelogram;perimeter=parallelogramPerimeter;whiteSpace=wrap;html=1;fixedSize=1;" vertex="1" parent="1">
          <mxGeometry x="940" y="120" width="120" height="60" as="geometry" />
        </mxCell>
        <mxCell id="j8NAKuWzRgl3xFltfP5k-87" value="display card" style="shape=parallelogram;perimeter=parallelogramPerimeter;whiteSpace=wrap;html=1;fixedSize=1;" vertex="1" parent="1">
          <mxGeometry x="1260" y="340" width="120" height="60" as="geometry" />
        </mxCell>
        <mxCell id="j8NAKuWzRgl3xFltfP5k-101" style="edgeStyle=orthogonalEdgeStyle;rounded=0;orthogonalLoop=1;jettySize=auto;html=1;" edge="1" parent="1" source="j8NAKuWzRgl3xFltfP5k-98" target="j8NAKuWzRgl3xFltfP5k-67">
          <mxGeometry relative="1" as="geometry" />
        </mxCell>
        <mxCell id="j8NAKuWzRgl3xFltfP5k-98" value="move armies" style="rounded=0;whiteSpace=wrap;html=1;" vertex="1" parent="1">
          <mxGeometry x="1620" y="390" width="120" height="60" as="geometry" />
        </mxCell>
      </root>
    </mxGraphModel>
  </diagram>
</mxfile>
